<svg width="46" height="46" viewBox="0 0 46 46" fill="none" xmlns="http://www.w3.org/2000/svg">
<rect width="46" height="46" rx="10" fill="#285FEC" fill-opacity="0.1"/>
<path d="M23 13.25V15.5" stroke="#285FEC" stroke-width="1.5" stroke-linecap="round" stroke-linejoin="round"/>
<path d="M23 30.5V32.75" stroke="#285FEC" stroke-width="1.5" stroke-linecap="round" stroke-linejoin="round"/>
<path d="M28.25 19.25C28.25 18.7575 28.153 18.2699 27.9645 17.8149C27.7761 17.36 27.4999 16.9466 27.1517 16.5983C26.8034 16.2501 26.39 15.9739 25.9351 15.7855C25.4801 15.597 24.9925 15.5 24.5 15.5H21.125C20.1304 15.5 19.1766 15.8951 18.4733 16.5983C17.7701 17.3016 17.375 18.2554 17.375 19.25C17.375 20.2446 17.7701 21.1984 18.4733 21.9017C19.1766 22.6049 20.1304 23 21.125 23H25.25C26.2446 23 27.1984 23.3951 27.9017 24.0983C28.6049 24.8016 29 25.7554 29 26.75C29 27.7446 28.6049 28.6984 27.9017 29.4017C27.1984 30.1049 26.2446 30.5 25.25 30.5H20.75C19.7554 30.5 18.8016 30.1049 18.0983 29.4017C17.3951 28.6984 17 27.7446 17 26.75" stroke="#285FEC" stroke-width="1.5" stroke-linecap="round" stroke-linejoin="round"/>
</svg>
