<svg width="46" height="46" viewBox="0 0 46 46" fill="none" xmlns="http://www.w3.org/2000/svg">
<rect width="46" height="46" rx="10" fill="#2A945F" fill-opacity="0.1"/>
<path d="M30.575 31.25H15.425C15.2405 31.2491 15.0625 31.1811 14.9245 31.0586C14.7865 30.9361 14.6978 30.7675 14.675 30.5844L13.3438 18.5844C13.3319 18.4798 13.3422 18.3739 13.374 18.2736C13.4057 18.1733 13.4582 18.0808 13.5281 18.0021C13.5979 17.9234 13.6836 17.8603 13.7794 17.8169C13.8752 17.7734 13.9792 17.7506 14.0844 17.75H31.9156C32.0209 17.7506 32.1248 17.7734 32.2206 17.8169C32.3164 17.8603 32.4021 17.9234 32.4719 18.0021C32.5418 18.0808 32.5943 18.1733 32.626 18.2736C32.6578 18.3739 32.6681 18.4798 32.6563 18.5844L31.325 30.5844C31.3022 30.7675 31.2135 30.9361 31.0755 31.0586C30.9375 31.1811 30.7596 31.2491 30.575 31.25V31.25Z" stroke="#2A945F" stroke-width="1.5" stroke-linecap="round" stroke-linejoin="round"/>
<path d="M19.25 20.75V17.75C19.25 16.7554 19.6451 15.8016 20.3483 15.0983C21.0516 14.3951 22.0054 14 23 14C23.9946 14 24.9484 14.3951 25.6517 15.0983C26.3549 15.8016 26.75 16.7554 26.75 17.75V20.75" stroke="#2A945F" stroke-width="1.5" stroke-linecap="round" stroke-linejoin="round"/>
</svg>
