<svg width="46" height="46" viewBox="0 0 46 46" fill="none" xmlns="http://www.w3.org/2000/svg">
<rect width="46" height="46" rx="10" fill="#FA6000" fill-opacity="0.1"/>
<path d="M23 17.75V19.25" stroke="#FA6000" stroke-width="1.5" stroke-linecap="round" stroke-linejoin="round"/>
<path d="M23 26.75V28.25" stroke="#FA6000" stroke-width="1.5" stroke-linecap="round" stroke-linejoin="round"/>
<path d="M23 32C27.9706 32 32 27.9706 32 23C32 18.0294 27.9706 14 23 14C18.0294 14 14 18.0294 14 23C14 27.9706 18.0294 32 23 32Z" stroke="#FA6000" stroke-width="1.5" stroke-linecap="round" stroke-linejoin="round"/>
<path d="M20.75 26.75H24.125C24.6223 26.75 25.0992 26.5525 25.4508 26.2008C25.8025 25.8492 26 25.3723 26 24.875C26 24.3777 25.8025 23.9008 25.4508 23.5492C25.0992 23.1975 24.6223 23 24.125 23H21.875C21.3777 23 20.9008 22.8025 20.5492 22.4508C20.1975 22.0992 20 21.6223 20 21.125C20 20.6277 20.1975 20.1508 20.5492 19.7992C20.9008 19.4475 21.3777 19.25 21.875 19.25H25.25" stroke="#FA6000" stroke-width="1.5" stroke-linecap="round" stroke-linejoin="round"/>
</svg>
