<svg width="46" height="46" viewBox="0 0 46 46" fill="none" xmlns="http://www.w3.org/2000/svg">
<rect width="46" height="46" rx="10" fill="#9D0D64" fill-opacity="0.1"/>
<path d="M22.5031 13.428L14.9375 14.9374L13.4281 22.503C13.4044 22.6238 13.4109 22.7486 13.4469 22.8663C13.4828 22.984 13.5472 23.0911 13.6343 23.178L23.4219 32.9655C23.4908 33.0361 23.5732 33.0922 23.6642 33.1305C23.7551 33.1688 23.8528 33.1885 23.9515 33.1885C24.0502 33.1885 24.1479 33.1688 24.2389 33.1305C24.3299 33.0922 24.4122 33.0361 24.4812 32.9655L32.9656 24.4812C33.0362 24.4122 33.0923 24.3298 33.1306 24.2388C33.1689 24.1479 33.1886 24.0502 33.1886 23.9515C33.1886 23.8528 33.1689 23.7551 33.1306 23.6641C33.0923 23.5732 33.0362 23.4908 32.9656 23.4218L23.1781 13.6343C23.0912 13.5472 22.9841 13.4828 22.8664 13.4468C22.7487 13.4108 22.6239 13.4044 22.5031 13.428V13.428Z" stroke="#BA096E" stroke-width="1.5" stroke-linecap="round" stroke-linejoin="round"/>
<path d="M19.0625 18.875C19.0625 18.9786 18.9786 19.0625 18.875 19.0625C18.7714 19.0625 18.6875 18.9786 18.6875 18.875C18.6875 18.7714 18.7714 18.6875 18.875 18.6875C18.9786 18.6875 19.0625 18.7714 19.0625 18.875Z" fill="#BA096E" stroke="#BA096E" stroke-width="1.5"/>
</svg>
