<svg width="46" height="46" viewBox="0 0 46 46" fill="none" xmlns="http://www.w3.org/2000/svg">
<rect width="46" height="46" rx="10" fill="#44DCC1" fill-opacity="0.1"/>
<path d="M27.5 18.5H31.4938C31.6432 18.499 31.7894 18.5433 31.9132 18.627C32.037 18.7106 32.1326 18.8298 32.1875 18.9688L33.5 22.25" stroke="#00CEB3" stroke-width="1.5" stroke-linecap="round" stroke-linejoin="round"/>
<path d="M12.5 24.5H27.5" stroke="#00CEB3" stroke-width="1.5" stroke-linecap="round" stroke-linejoin="round"/>
<path d="M28.625 31.25C29.8676 31.25 30.875 30.2426 30.875 29C30.875 27.7574 29.8676 26.75 28.625 26.75C27.3824 26.75 26.375 27.7574 26.375 29C26.375 30.2426 27.3824 31.25 28.625 31.25Z" stroke="#00CEB3" stroke-width="1.5" stroke-linecap="round" stroke-linejoin="round"/>
<path d="M17.375 31.25C18.6176 31.25 19.625 30.2426 19.625 29C19.625 27.7574 18.6176 26.75 17.375 26.75C16.1324 26.75 15.125 27.7574 15.125 29C15.125 30.2426 16.1324 31.25 17.375 31.25Z" stroke="#00CEB3" stroke-width="1.5" stroke-linecap="round" stroke-linejoin="round"/>
<path d="M26.375 29H19.625" stroke="#00CEB3" stroke-width="1.5" stroke-linecap="round" stroke-linejoin="round"/>
<path d="M15.125 29H13.25C13.0511 29 12.8603 28.921 12.7197 28.7803C12.579 28.6397 12.5 28.4489 12.5 28.25V17.75C12.5 17.5511 12.579 17.3603 12.7197 17.2197C12.8603 17.079 13.0511 17 13.25 17H27.5V27.05" stroke="#00CEB3" stroke-width="1.5" stroke-linecap="round" stroke-linejoin="round"/>
<path d="M27.5 22.25H33.5V28.25C33.5 28.4489 33.421 28.6397 33.2803 28.7803C33.1397 28.921 32.9489 29 32.75 29H30.875" stroke="#00CEB3" stroke-width="1.5" stroke-linecap="round" stroke-linejoin="round"/>
</svg>
