<svg width="159" height="167" viewBox="0 0 159 167" fill="none" xmlns="http://www.w3.org/2000/svg">
<circle cx="72.5" cy="72.5" r="72.5" fill="#EFF2F4"/>
<g filter="url(#filter0_d_503_15975)">
<path d="M72.5005 130.17C104.351 130.17 130.171 104.35 130.171 72.4996C130.171 40.649 104.351 14.8291 72.5005 14.8291C40.65 14.8291 14.8301 40.649 14.8301 72.4996C14.8301 104.35 40.65 130.17 72.5005 130.17Z" fill="white"/>
</g>
<path d="M100.833 72.0003C100.833 87.6484 88.1479 100.334 72.4998 100.334C56.8518 100.334 44.1665 87.6484 44.1665 72.0003C44.1665 56.3523 56.8518 43.667 72.4998 43.667C88.1479 43.667 100.833 56.3523 100.833 72.0003Z" fill="#349B67"/>
<path d="M83.9194 63.4144C84.7493 64.2443 84.7493 65.5897 83.9194 66.4196L69.7528 80.5863C68.9229 81.4161 67.5774 81.4161 66.7476 80.5863L61.0809 74.9196C60.251 74.0897 60.251 72.7443 61.0809 71.9144C61.9108 71.0845 63.2562 71.0845 64.0861 71.9144L68.2502 76.0785L74.5822 69.7464L80.9142 63.4144C81.7441 62.5845 83.0896 62.5845 83.9194 63.4144Z" fill="white"/>
<defs>
<filter id="filter0_d_503_15975" x="10.8301" y="14.8291" width="147.341" height="151.341" filterUnits="userSpaceOnUse" color-interpolation-filters="sRGB">
<feFlood flood-opacity="0" result="BackgroundImageFix"/>
<feColorMatrix in="SourceAlpha" type="matrix" values="0 0 0 0 0 0 0 0 0 0 0 0 0 0 0 0 0 0 127 0" result="hardAlpha"/>
<feOffset dx="12" dy="20"/>
<feGaussianBlur stdDeviation="8"/>
<feColorMatrix type="matrix" values="0 0 0 0 0.1024 0 0 0 0 0.0219429 0 0 0 0 0.618057 0 0 0 0.09 0"/>
<feBlend mode="normal" in2="BackgroundImageFix" result="effect1_dropShadow_503_15975"/>
<feBlend mode="normal" in="SourceGraphic" in2="effect1_dropShadow_503_15975" result="shape"/>
</filter>
</defs>
</svg>
