<svg width="16" height="17" viewBox="0 0 16 17" fill="none" xmlns="http://www.w3.org/2000/svg">
<path d="M2.63119 3.5H13.3687C13.4657 3.50003 13.5606 3.52827 13.6418 3.58127C13.723 3.63427 13.7871 3.70975 13.8261 3.79852C13.8652 3.88728 13.8776 3.98549 13.8619 4.08119C13.8461 4.17689 13.8029 4.26594 13.7374 4.3375L9.63119 8.85625C9.54573 8.94773 9.49873 9.06857 9.49994 9.19375V12.7312C9.5007 12.8143 9.48048 12.8963 9.44115 12.9695C9.40182 13.0427 9.34465 13.1048 9.27494 13.15L7.27494 14.4812C7.19992 14.5307 7.11297 14.559 7.02323 14.5631C6.9335 14.5673 6.84429 14.5473 6.76499 14.5051C6.68569 14.4629 6.61922 14.4001 6.57258 14.3233C6.52594 14.2465 6.50085 14.1586 6.49994 14.0688V9.19375C6.50114 9.06857 6.45415 8.94773 6.36869 8.85625L2.26244 4.3375C2.19697 4.26594 2.15373 4.17689 2.13798 4.08119C2.12224 3.98549 2.13466 3.88728 2.17374 3.79852C2.21282 3.70975 2.27688 3.63427 2.3581 3.58127C2.43932 3.52827 2.5342 3.50003 2.63119 3.5V3.5Z" stroke="#919EAB" stroke-width="1.5" stroke-linecap="round" stroke-linejoin="round"/>
</svg>
