<svg width="16" height="14" viewBox="0 0 16 14" fill="none" xmlns="http://www.w3.org/2000/svg">
<path d="M8.35621 12.2437L13.4187 7.18121C14.6625 5.93121 14.8437 3.88746 13.6687 2.58121C13.374 2.25203 13.0153 1.98639 12.6145 1.80052C12.2137 1.61464 11.7792 1.51244 11.3376 1.50016C10.8959 1.48787 10.4564 1.56576 10.0459 1.72907C9.6354 1.89238 9.26248 2.13767 8.94996 2.44996L7.99996 3.40621L7.18121 2.58121C5.93121 1.33746 3.88746 1.15621 2.58121 2.33121C2.25203 2.62589 1.98639 2.98459 1.80052 3.3854C1.61464 3.78621 1.51244 4.22071 1.50016 4.66235C1.48787 5.10398 1.56576 5.54349 1.72907 5.95401C1.89238 6.36453 2.13767 6.73744 2.44996 7.04996L7.64371 12.2437C7.73851 12.3376 7.86654 12.3903 7.99996 12.3903C8.13339 12.3903 8.26142 12.3376 8.35621 12.2437V12.2437Z" stroke="white" stroke-width="1.5" stroke-linecap="round" stroke-linejoin="round"/>
</svg>
