<svg width="28" height="28" viewBox="0 0 28 28" fill="none" xmlns="http://www.w3.org/2000/svg">
<path d="M0 14C0 6.26801 6.26801 0 14 0C21.732 0 28 6.26801 28 14C28 21.732 21.732 28 14 28C6.26801 28 0 21.732 0 14Z" fill="#0077B5"/>
<path fill-rule="evenodd" clip-rule="evenodd" d="M10.1025 8.64657C10.1025 9.56189 9.4135 10.2943 8.30723 10.2943H8.28695C7.2218 10.2943 6.5332 9.56189 6.5332 8.64657C6.5332 7.7119 7.24278 7 8.32814 7C9.4135 7 10.0819 7.7119 10.1025 8.64657ZM9.89352 11.5954V21.1281H6.72081V11.5954H9.89352ZM21.3354 21.1281L21.3355 15.6623C21.3355 12.7343 19.7703 11.3716 17.6825 11.3716C15.998 11.3716 15.2439 12.2968 14.8228 12.9459V11.5957H11.6497C11.6915 12.4902 11.6497 21.1283 11.6497 21.1283H14.8228V15.8045C14.8228 15.5196 14.8434 15.2354 14.9272 15.0314C15.1565 14.4623 15.6786 13.873 16.5552 13.873C17.7037 13.873 18.1628 14.7471 18.1628 16.0281V21.1281H21.3354Z" fill="white"/>
</svg>
