<svg width="24" height="25" viewBox="0 0 24 25" fill="none" xmlns="http://www.w3.org/2000/svg">
<path d="M17.25 17.75H6.54375L3.92813 3.36875C3.89752 3.19653 3.80768 3.04042 3.67415 2.92743C3.54062 2.81444 3.37179 2.75168 3.19687 2.75H1.5" stroke="#637381" stroke-width="1.5" stroke-linecap="round" stroke-linejoin="round"/>
<path d="M7.5 21.5C8.53553 21.5 9.375 20.6605 9.375 19.625C9.375 18.5895 8.53553 17.75 7.5 17.75C6.46447 17.75 5.625 18.5895 5.625 19.625C5.625 20.6605 6.46447 21.5 7.5 21.5Z" stroke="#637381" stroke-width="1.5" stroke-linecap="round" stroke-linejoin="round"/>
<path d="M17.25 21.5C18.2855 21.5 19.125 20.6605 19.125 19.625C19.125 18.5895 18.2855 17.75 17.25 17.75C16.2145 17.75 15.375 18.5895 15.375 19.625C15.375 20.6605 16.2145 21.5 17.25 21.5Z" stroke="#637381" stroke-width="1.5" stroke-linecap="round" stroke-linejoin="round"/>
<path d="M5.85938 14H17.6344C17.985 14.0011 18.3247 13.8785 18.5939 13.6539C18.8631 13.4293 19.0445 13.117 19.1063 12.7719L20.25 6.5H4.5" stroke="#637381" stroke-width="1.5" stroke-linecap="round" stroke-linejoin="round"/>
</svg>
