<svg width="28" height="28" viewBox="0 0 28 28" fill="none" xmlns="http://www.w3.org/2000/svg">
<path d="M0 14C0 6.26801 6.26801 0 14 0C21.732 0 28 6.26801 28 14C28 21.732 21.732 28 14 28C6.26801 28 0 21.732 0 14Z" fill="#55ACEE"/>
<path d="M13.5807 11.3793L13.6101 11.8637L13.1204 11.8044C11.3382 11.577 9.78113 10.8059 8.45911 9.51076L7.81279 8.86814L7.64632 9.34269C7.29378 10.4005 7.51901 11.5177 8.25347 12.269C8.64518 12.6843 8.55704 12.7436 7.88134 12.4964C7.64632 12.4173 7.44067 12.358 7.42109 12.3877C7.35254 12.4569 7.58756 13.3565 7.77362 13.7125C8.02823 14.2068 8.54725 14.6912 9.11523 14.9779L9.59507 15.2053L9.02709 15.2152C8.4787 15.2152 8.45911 15.2251 8.51787 15.4327C8.71372 16.0753 9.48735 16.7575 10.3491 17.054L10.9563 17.2617L10.4274 17.578C9.64403 18.0328 8.72352 18.2898 7.803 18.3096C7.36233 18.3195 7 18.359 7 18.3887C7 18.4876 8.19471 19.0412 8.88999 19.2587C10.9758 19.9013 13.4534 19.6245 15.314 18.5271C16.636 17.7461 17.958 16.1939 18.575 14.6912C18.9079 13.8904 19.2409 12.4272 19.2409 11.7253C19.2409 11.2705 19.2703 11.2112 19.8187 10.6675C20.1418 10.3511 20.4454 10.0051 20.5041 9.90621C20.6021 9.71837 20.5923 9.71837 20.0929 9.88644C19.2605 10.183 19.143 10.1435 19.5543 9.6986C19.8578 9.38223 20.2202 8.80882 20.2202 8.64076C20.2202 8.6111 20.0733 8.66053 19.9068 8.74951C19.7305 8.84837 19.3388 8.99667 19.045 9.08564L18.5162 9.25371L18.0364 8.92746C17.772 8.74951 17.3999 8.55178 17.204 8.49246C16.7046 8.35405 15.9407 8.37382 15.4903 8.53201C14.2662 8.97689 13.4926 10.1237 13.5807 11.3793Z" fill="white"/>
</svg>
