<svg width="103" height="37" viewBox="0 0 103 37" fill="none" xmlns="http://www.w3.org/2000/svg">
<path d="M101.561 17.4892H102.793C102.025 17.2197 101.244 17.2197 100.476 17.4892C100.054 17.1062 99.6007 16.9193 99.1448 16.9398H98.1095L97.8137 16.3904H97.5672L96.8276 15.841H97.1727H98.0109C98.2574 15.841 98.5532 15.841 98.5039 15.0718C98.8983 15.0718 99.342 15.0718 99.4406 14.4125V13.863C99.7364 13.863 100.032 13.863 100.229 13.863C100.456 13.4343 100.704 13.0655 100.969 12.7642L101.708 12.1049C101.708 11.5921 101.906 11.1526 102.3 10.7863C102.3 10.7863 102.793 10.7863 102.941 10.7863C103.089 10.7863 102.941 10.7863 102.694 10.7863H101.708V10.2369C101.708 10.2369 102.103 10.2369 102.349 10.2369C102.204 10.1577 102.051 10.1577 101.906 10.2369C101.73 9.9317 101.529 9.70757 101.314 9.57757C101.314 9.57757 100.772 9.57757 100.969 8.69849C101.166 7.81942 101.314 8.69849 101.708 8.69849C101.635 8.50489 101.545 8.3466 101.443 8.23325C101.341 8.11991 101.23 8.05387 101.117 8.03917C101.04 7.96016 100.955 7.91927 100.87 7.91927C100.785 7.91927 100.701 7.96016 100.624 8.03917H99.835H99.2927H99.7857C100.059 7.93921 100.324 7.75427 100.575 7.48976C100.966 7.64382 101.366 7.64382 101.758 7.48976H100.525C100.525 7.48976 101.117 7.48976 101.166 7.48976C100.641 7.37721 100.113 7.37721 99.5885 7.48976H97.863H96.729C96.729 7.48976 95.7923 7.48976 96.1374 6.72058C95.1959 6.0756 94.2133 5.77865 93.2287 5.8415H92.5384C91.6208 5.61996 90.6952 5.61996 89.7776 5.8415C89.3353 5.72799 88.8887 5.72799 88.4464 5.8415C88.2057 5.67279 87.9476 5.67279 87.7069 5.8415C87.3327 5.67279 86.9472 5.67279 86.573 5.8415H86.2279C85.3898 5.8415 84.5023 5.8415 83.7135 5.8415C83.3372 5.73094 82.9559 5.73094 82.5796 5.8415H74.2477H73.9519C73.6748 5.72796 73.3908 5.72796 73.1137 5.8415C70.8952 5.8415 68.6273 5.8415 66.4088 5.8415H65.8172C64.9633 5.73161 64.1073 5.73161 63.2535 5.8415C62.8771 5.73094 62.4959 5.73094 62.1196 5.8415C60.0982 5.8415 58.0276 5.8415 56.0062 5.8415H53.837H54.4286C54.154 5.67836 53.865 5.67836 53.5905 5.8415H52.2593C52.2593 5.8415 51.8156 5.8415 51.6677 5.8415C50.7983 5.67579 49.9241 5.67579 49.0547 5.8415H37.7155H34.5109H26.1297C25.4733 5.72907 24.814 5.72907 24.1576 5.8415H22.6786C22.2214 5.6773 21.7553 5.6773 21.2981 5.8415H20.7558C19.8684 5.8415 18.981 5.8415 18.0443 5.8415C17.4867 5.72556 16.9255 5.72556 16.368 5.8415C16.0722 5.8415 15.8257 5.8415 15.7764 5.8415C15.7271 5.8415 15.4806 6.94034 15.0369 7.37987C14.5932 7.81941 14.6425 8.36882 15.0369 8.80836L15.6285 9.68743C15.1332 9.72173 14.6465 9.98361 14.1988 10.4566C14.1988 10.4566 13.903 10.4566 13.8536 10.4566C13.7999 10.3983 13.7409 10.368 13.6811 10.368C13.6213 10.368 13.5623 10.3983 13.5085 10.4566C13.2127 10.4566 12.7197 10.4566 12.5718 10.4566H11.5858C11.2598 10.3248 10.9258 10.3248 10.5998 10.4566C10.9057 10.655 11.2306 10.655 11.5365 10.4566H11.8816V11.995H10.4026C9.6132 12.081 8.83317 12.4139 8.0854 12.984C7.54309 12.984 7.19798 13.6433 6.65567 13.863C7.05008 13.863 7.24728 13.863 7.54309 13.863L7.14868 14.4125C6.72134 14.497 6.31235 14.8388 5.96545 15.4014C5.96545 15.4014 5.57104 15.4014 5.62034 15.9508C5.66964 16.5003 4.83152 16.9398 4.78222 17.709H5.42314L4.93012 13.7532C4.93012 13.7532 4.93012 14.4125 4.93012 14.7421H4.38781H3.9441C3.10598 15.2915 3.10598 15.4014 3.9441 15.9508C3.26102 15.9924 2.58253 16.2137 1.92275 16.6101C1.92275 16.6101 1.28183 17.1596 0.936724 17.3793L0.295807 17.9287H1.42974H0C0.784157 18.1991 1.5823 18.1991 2.36646 17.9287C2.77365 18.4165 3.23904 18.6086 3.69759 18.4782C4.02452 18.5849 4.35669 18.5849 4.68362 18.4782C4.80226 18.5999 4.90432 18.7894 4.97943 19.0276H5.27523L6.01475 19.577H5.62034C5.34329 19.4635 5.05927 19.4635 4.78222 19.577H4.93012C4.93012 19.577 4.43711 19.577 4.43711 20.3462C4.0427 20.3462 3.59899 20.3462 3.50039 20.8956C3.20458 20.8956 2.90877 20.8956 2.71157 20.8956L2.02135 21.9945H1.23253C1.23253 22.5439 1.23253 22.9834 0.690217 23.3131C0.147904 23.6427 0.147904 23.3131 0.0493012 23.3131H0.986025V23.8625C0.986025 23.8625 0.591615 23.8625 0.345109 23.8625C0.491795 23.9223 0.642134 23.9223 0.78882 23.8625C0.967729 24.1313 1.16884 24.318 1.38043 24.4119C1.38043 24.4119 1.92275 24.9613 1.77484 25.4009C1.62694 25.8404 1.42974 25.4009 1.03533 25.4009C1.17693 25.735 1.3716 25.9322 1.57764 25.9503C1.65575 26.0228 1.73953 26.0602 1.82415 26.0602C1.90876 26.0602 1.99254 26.0228 2.07065 25.9503H2.76087H3.35248H2.90877C2.46506 25.9503 2.90877 25.9503 2.90877 26.6096C2.62683 26.6089 2.35155 26.8006 2.11995 27.159C1.72682 27.0592 1.32986 27.0592 0.936724 27.159H2.02135C2.02135 27.159 1.42974 27.159 1.38043 27.159C1.88723 27.3228 2.40198 27.3228 2.90877 27.159H4.93012H6.11335C6.11335 27.159 7.05008 27.159 6.70497 27.9282C7.32303 31.5452 8.42441 34.652 9.86025 36.8288H10.5998C11.5008 37.0538 12.4103 37.0538 13.3113 36.8288C13.7518 36.9969 14.202 36.9969 14.6425 36.8288C14.9383 36.8288 15.2341 36.8288 15.4313 36.8288C15.8191 37.0571 16.2268 37.0571 16.6145 36.8288H16.9596C17.7484 36.8288 18.6359 36.8288 19.474 36.8288C19.8503 36.9394 20.2316 36.9394 20.6079 36.8288H28.5947H34.5109H29.5807C31.8486 36.8288 34.0672 36.8288 36.335 36.8288H36.9759C37.8454 36.9935 38.7195 36.9935 39.5889 36.8288H40.92C42.9414 36.8288 44.9627 36.8288 46.9841 36.8288H48.8082C48.9386 36.8826 49.0723 36.8826 49.2026 36.8288H48.611C48.8715 36.9415 49.1393 36.9415 49.3998 36.8288H50.5338C50.7272 36.951 50.932 36.951 51.1254 36.8288C52.0286 36.9397 52.9338 36.9397 53.837 36.8288H65.0776H68.3315H82.0866C82.9724 36.9955 83.863 36.9955 84.7488 36.8288C85.3065 36.9382 85.8674 36.9382 86.4251 36.8288C86.7209 36.8288 86.9674 36.8288 87.066 36.8288C87.1646 36.8288 87.3618 35.73 87.7562 35.2904C88.1506 34.8509 88.1506 34.4114 87.7562 33.862L87.2139 32.873C87.6989 32.9456 88.1818 32.6766 88.5943 32.1038H88.9394H89.2846C89.6297 32.1038 90.0734 32.1038 90.2213 32.1038H91.158H92.1933C91.8683 31.9495 91.5323 31.9495 91.2073 32.1038H90.8622V30.6753H91.7003H92.4398C93.2298 30.6 94.0104 30.2668 94.757 29.6864C95.2401 29.4947 95.7176 29.2378 96.1867 28.9172C95.8416 28.9172 95.5951 28.9172 95.3486 28.9172H95.1021H95.5458C95.9462 28.7334 96.3297 28.399 96.6797 27.9282C96.9262 27.9282 97.0742 27.9282 97.0248 27.2689C96.9755 26.6096 97.8137 26.2799 97.863 25.5108H97.2713L97.6658 24.9613C97.6658 24.9613 97.6658 24.302 97.6658 23.9724H98.2574C98.3842 24.0827 98.525 24.0827 98.6518 23.9724C99.4899 23.423 99.4899 23.423 98.6518 22.7637C99.3349 22.7221 100.013 22.5008 100.673 22.1044C100.673 22.1044 101.314 21.5549 101.659 21.3352L102.349 20.7857H101.413C101.413 20.7857 101.265 17.4892 101.561 17.4892ZM30.1724 2.76474C30.1724 2.76474 30.271 2.10544 30.1724 2.10544V2.76474ZM72.6207 34.5213C72.6207 34.5213 72.5221 34.6311 72.6207 34.6311V34.5213ZM65.5707 36.2794C65.5707 36.2794 65.8172 35.73 65.7679 36.2794H65.5707ZM49.3998 0.347295C49.3998 0.347295 49.3012 -0.0922487 49.3012 0.0176355L49.3998 0.347295ZM66.2116 36.8288H66.606C66.4792 36.7185 66.3384 36.7185 66.2116 36.8288Z" fill="#FFC700"/>
</svg>
