<svg width="20" height="20" viewBox="0 0 20 20" fill="none" xmlns="http://www.w3.org/2000/svg">
<path d="M12.7095 8.9075C11.8873 7.92373 11.4762 7.43184 11.0036 7.50761C10.5311 7.58337 10.31 8.1766 9.86781 9.36307L9.75342 9.67003C9.62777 10.0072 9.56494 10.1758 9.44271 10.2999C9.32047 10.4241 9.15266 10.4899 8.81703 10.6213L8.51147 10.741C7.3304 11.2036 6.73986 11.4349 6.67251 11.9076C6.60516 12.3803 7.1056 12.7815 8.10648 13.5837L8.36542 13.7913C8.64984 14.0192 8.79205 14.1332 8.87437 14.2892C8.95669 14.4453 8.96979 14.6257 8.99601 14.9865L9.01987 15.3149C9.11212 16.5846 9.15825 17.2194 9.5892 17.4358C10.0201 17.6522 10.5505 17.3069 11.6113 16.6163L11.8857 16.4376C12.1871 16.2413 12.3378 16.1432 12.5109 16.1154C12.6841 16.0877 12.86 16.1334 13.2118 16.225L13.5321 16.3083C14.7702 16.6304 15.3892 16.7915 15.7229 16.4525C16.0566 16.1135 15.884 15.4989 15.5387 14.2698L15.4493 13.9519C15.3512 13.6026 15.3021 13.428 15.3268 13.2548C15.3515 13.0816 15.4471 12.9295 15.6383 12.6253L15.8124 12.3483C16.4853 11.2777 16.8218 10.7424 16.5971 10.3165C16.3724 9.89057 15.7353 9.85609 14.4611 9.78713L14.1315 9.76929C13.7694 9.74969 13.5884 9.73989 13.4305 9.66062C13.2727 9.58134 13.1558 9.44157 12.9222 9.16201L12.7095 8.9075Z" fill="#C7675E"/>
<path opacity="0.5" d="M8.60919 3.54365C9.70544 2.23196 10.2536 1.57612 10.8837 1.67713C11.5138 1.77815 11.8085 2.56913 12.3981 4.15109L12.5506 4.56036C12.7182 5.00991 12.8019 5.23468 12.9649 5.40025C13.1279 5.56583 13.3516 5.65346 13.7991 5.82873L14.2065 5.9883C15.7813 6.60507 16.5687 6.91346 16.6585 7.54379C16.7483 8.17412 16.081 8.70895 14.7465 9.7786L14.4013 10.0553C14.0221 10.3593 13.8324 10.5113 13.7227 10.7193C13.6129 10.9273 13.5955 11.1679 13.5605 11.6489L13.5287 12.0869C13.4057 13.7798 13.3442 14.6262 12.7696 14.9148C12.195 15.2033 11.4878 14.7429 10.0735 13.822L9.7076 13.5838C9.30569 13.3221 9.10474 13.1912 8.87392 13.1542C8.6431 13.1172 8.40855 13.1782 7.93945 13.3003L7.51237 13.4114C5.86159 13.8409 5.0362 14.0556 4.59127 13.6036C4.14635 13.1516 4.37656 12.3322 4.83697 10.6934L4.95608 10.2695C5.08691 9.80378 5.15233 9.57093 5.11943 9.34003C5.08654 9.10913 4.95905 8.90631 4.70409 8.50068L4.47196 8.13138C3.57472 6.70394 3.1261 5.99021 3.42572 5.42232C3.72534 4.85442 4.57477 4.80844 6.27365 4.7165L6.71316 4.69271C7.19593 4.66658 7.43731 4.65352 7.6478 4.54782C7.85829 4.44212 8.01405 4.25575 8.32557 3.883L8.60919 3.54365Z" fill="#C7675E"/>
</svg>
