<svg width="20" height="20" viewBox="0 0 20 20" fill="none" xmlns="http://www.w3.org/2000/svg">
<path d="M7.01841 17.1814C8.48143 17.9491 9.21294 18.333 9.99984 18.333V9.99969L2.19818 5.89355C2.1867 5.91201 2.17542 5.93065 2.16433 5.94947C1.6665 6.7949 1.6665 7.84691 1.6665 9.95095V10.0484C1.6665 12.1525 1.6665 13.2045 2.16433 14.0499C2.66217 14.8953 3.55869 15.3658 5.35175 16.3068L7.01841 17.1814Z" fill="#CCCCCC"/>
<path opacity="0.7" d="M14.648 3.69326L12.9813 2.81863C11.5183 2.05087 10.7868 1.66699 9.9999 1.66699C9.213 1.66699 8.48149 2.05087 7.01847 2.81863L5.35181 3.69326C3.59867 4.61326 2.70259 5.0835 2.19824 5.89419L9.9999 10.0003L17.8015 5.89419C17.2972 5.08351 16.4011 4.61326 14.648 3.69326Z" fill="#CCCCCC"/>
<path opacity="0.5" d="M17.8355 5.94947C17.8244 5.93065 17.8131 5.91201 17.8017 5.89355L10 9.99969V18.333C10.7869 18.333 11.5184 17.9491 12.9814 17.1814L14.6481 16.3068C16.4411 15.3658 17.3377 14.8953 17.8355 14.0499C18.3333 13.2045 18.3333 12.1525 18.3333 10.0484V9.95095C18.3333 7.84691 18.3333 6.7949 17.8355 5.94947Z" fill="#CCCCCC"/>
<path d="M5.26928 3.73659C5.29665 3.72223 5.32422 3.70776 5.35201 3.69318L6.59662 3.04004L14.1806 7.21123L17.5337 5.53468C17.6484 5.66462 17.7482 5.80154 17.8356 5.95003C17.9603 6.16171 18.0537 6.38635 18.1237 6.6372L14.7918 8.30319V10.8336C14.7918 11.1788 14.5119 11.4586 14.1668 11.4586C13.8216 11.4586 13.5418 11.1788 13.5418 10.8336V8.92819L10.6251 10.3865V18.2536C10.411 18.3069 10.2075 18.3336 10.0001 18.3336C9.79272 18.3336 9.58919 18.3069 9.3751 18.2536V10.3865L1.87646 6.6372C1.94651 6.38635 2.03995 6.16171 2.1646 5.95003C2.25204 5.80154 2.35177 5.66462 2.46651 5.53468L10.0001 9.30148L12.8219 7.89056L5.26928 3.73659Z" fill="#CCCCCC"/>
</svg>
