<svg width="20" height="20" viewBox="0 0 20 20" fill="none" xmlns="http://www.w3.org/2000/svg">
<path d="M1.89791 4.37213C1.99019 4.03951 2.33464 3.84469 2.66725 3.93697L4.087 4.33088C4.85107 4.54287 5.45575 5.13189 5.66669 5.89542L7.45922 12.3838L7.59112 12.8392C8.11874 13.0362 8.57191 13.4052 8.85953 13.8953L9.11785 13.8155L16.5096 11.8946C16.8437 11.8077 17.1849 12.0082 17.2717 12.3423C17.3586 12.6763 17.1581 13.0175 16.824 13.1044L9.45959 15.0183L9.18568 15.1028C9.18006 16.162 8.44937 17.1292 7.34364 17.4166C6.01825 17.761 4.65591 16.9982 4.30077 15.7127C3.94563 14.4272 4.73218 13.1059 6.05757 12.7614C6.12325 12.7443 6.18902 12.73 6.25475 12.7183L4.46183 6.22828C4.3716 5.90169 4.10748 5.63378 3.75281 5.53538L2.33307 5.14147C2.00045 5.04919 1.80563 4.70474 1.89791 4.37213Z" fill="white"/>
<path opacity="0.5" d="M7.97052 7.27541L8.39921 8.82713C8.80338 10.2901 9.00547 11.0216 9.59963 11.3543C10.1938 11.687 10.948 11.491 12.4564 11.099L14.0563 10.6832C15.5646 10.2912 16.3188 10.0952 16.6619 9.51895C17.0049 8.94269 16.8028 8.2112 16.3987 6.74823L15.97 5.1965C15.5658 3.73352 15.3637 3.00204 14.7696 2.66933C14.1754 2.33662 13.4212 2.53262 11.9128 2.92462L10.3129 3.34041C8.80453 3.73241 8.05034 3.92841 7.7073 4.50468C7.36426 5.08095 7.56635 5.81244 7.97052 7.27541Z" fill="white"/>
</svg>
