<svg width="20" height="20" viewBox="0 0 20 20" fill="none" xmlns="http://www.w3.org/2000/svg">
<path opacity="0.5" d="M2.64281 5.97631C3.34597 5.27315 4.35779 5.07642 6.043 5.02138L7.29324 5.00156C7.61942 5 7.96554 5 8.33317 5H11.6665C12.0341 5 12.3803 5 12.7064 5.00156L13.9567 5.02138C15.6419 5.07642 16.6537 5.27315 17.3569 5.97631C18.3332 6.95262 18.3332 8.52397 18.3332 11.6667C18.3332 14.8094 18.3332 16.3807 17.3569 17.357C16.3806 18.3333 14.8092 18.3333 11.6665 18.3333H11.6665H8.33316H8.33315C5.19047 18.3333 3.61912 18.3333 2.64281 17.357C1.6665 16.3807 1.6665 14.8094 1.6665 11.6667C1.6665 8.52397 1.6665 6.95262 2.64281 5.97631Z" fill="white"/>
<path d="M10.6252 8.33301C10.6252 7.98783 10.3453 7.70801 10.0002 7.70801C9.65499 7.70801 9.37516 7.98783 9.37516 8.33301V8.34153C8.46784 8.57012 7.7085 9.28551 7.7085 10.2775C7.7085 11.4915 8.84605 12.2913 10.0002 12.2913C10.687 12.2913 11.0418 12.7352 11.0418 13.0552C11.0418 13.3753 10.687 13.8191 10.0002 13.8191C9.31333 13.8191 8.9585 13.3753 8.9585 13.0552C8.9585 12.7101 8.67867 12.4302 8.3335 12.4302C7.98832 12.4302 7.7085 12.7101 7.7085 13.0552C7.7085 14.0472 8.46784 14.7626 9.37516 14.9911V14.9997C9.37516 15.3449 9.65499 15.6247 10.0002 15.6247C10.3453 15.6247 10.6252 15.3449 10.6252 14.9997V14.9911C11.5325 14.7626 12.2918 14.0472 12.2918 13.0552C12.2918 11.8411 11.1543 11.0413 10.0002 11.0413C9.31333 11.0413 8.9585 10.5975 8.9585 10.2775C8.9585 9.95743 9.31333 9.51356 10.0002 9.51356C10.687 9.51356 11.0418 9.95743 11.0418 10.2775C11.0418 10.6226 11.3217 10.9025 11.6668 10.9025C12.012 10.9025 12.2918 10.6226 12.2918 10.2775C12.2918 9.28551 11.5325 8.57012 10.6252 8.34153V8.33301Z" fill="white"/>
<path d="M10.0436 1.04199H9.95696C9.20824 1.04197 8.58388 1.04195 8.08823 1.10859C7.56507 1.17893 7.09274 1.33365 6.71318 1.71321C6.33362 2.09277 6.17889 2.5651 6.10856 3.08826C6.06079 3.44357 6.04727 4.29322 6.04346 5.02171L7.29369 5.00189C7.29747 4.29635 7.30947 3.53705 7.34741 3.25482C7.39911 2.87027 7.48846 2.70569 7.59706 2.59709C7.70566 2.4885 7.87024 2.39914 8.25479 2.34744C8.65732 2.29332 9.19695 2.292 10.0003 2.292C10.8036 2.292 11.3433 2.29332 11.7458 2.34744C12.1304 2.39914 12.2949 2.4885 12.4035 2.59709C12.5121 2.70569 12.6015 2.87027 12.6532 3.25482C12.6911 3.53705 12.7031 4.29635 12.7069 5.00189L13.9571 5.02171C13.9533 4.29322 13.9398 3.44357 13.892 3.08826C13.8217 2.5651 13.667 2.09277 13.2874 1.71321C12.9079 1.33365 12.4355 1.17893 11.9124 1.10859C11.4167 1.04195 10.7924 1.04197 10.0436 1.04199Z" fill="white"/>
</svg>
