<svg width="125" height="53" viewBox="0 0 125 53" fill="none" xmlns="http://www.w3.org/2000/svg">
<path d="M12.1528 4.66385C7.55011 6.78049 4.52495 11.5112 4.44632 16.7157C4.40798 19.278 5.07505 21.775 6.37443 23.9355C6.49687 24.1398 6.71145 24.2517 6.93092 24.2517C7.04616 24.2517 7.16203 24.2209 7.26795 24.1556C7.57574 23.9676 7.6734 23.5635 7.48656 23.2533C6.31451 21.3035 5.71332 19.0495 5.74787 16.7345C5.8182 12.0353 8.54402 7.76622 12.6913 5.85888C13.0186 5.7085 13.1631 5.31875 13.0142 4.98888C12.865 4.65989 12.4773 4.51261 12.1528 4.66385Z" fill="#C7675E"/>
<path d="M35.841 6.16211C35.7839 6.16147 35.7277 6.16147 35.6712 6.16147C33.6702 6.16147 31.7485 6.53603 29.9668 7.2182C26.937 2.75022 22.0136 0.0559508 16.7241 0.000641736C16.6669 -1.36818e-08 16.6108 0 16.5542 0C7.55116 0 0.141863 7.54065 0.00195279 16.889C-0.124932 25.4252 5.94598 32.7233 13.993 33.9439L13.5706 34.6864C13.2732 35.2088 13.2738 35.831 13.5725 36.3515C13.924 36.9652 14.6241 37.3464 15.3992 37.3464H15.6712V52.3423C15.6712 52.7057 15.962 52.9994 16.3219 52.9994C16.6818 52.9994 16.9727 52.7057 16.9727 52.3423V37.3464H17.0377C17.8121 37.3464 18.5129 36.9652 18.8643 36.3515C19.163 35.831 19.1636 35.2088 18.8662 34.6864L18.4699 33.9886C19.7142 33.8256 20.9337 33.5122 22.1102 33.0613C24.6331 36.7716 28.5532 39.4136 33.1106 40.1058L32.6888 40.8477C32.3914 41.37 32.392 41.9923 32.6907 42.5127C33.0421 43.1265 33.7423 43.5076 34.5174 43.5076H34.7894L34.7898 52.3429C34.7898 52.7063 35.0806 53 35.4405 53C35.8004 53 36.0913 52.7063 36.0913 52.3429V43.5076H36.1563C36.9307 43.5076 37.6315 43.1265 37.9829 42.5127C38.2816 41.9923 38.2823 41.37 37.9849 40.8477L37.5885 40.1499C45.6572 39.09 51.9331 31.9291 52.0606 23.4006C52.1296 18.76 50.4272 14.4005 47.2672 11.1258C44.2185 7.96993 40.1615 6.20746 35.841 6.16211ZM17.3604 32.7784C17.1365 32.7929 16.9361 32.9243 16.83 33.1234C16.7232 33.3239 16.7272 33.5643 16.8391 33.7615L17.7376 35.3413C17.8052 35.4608 17.8052 35.5753 17.7383 35.6936C17.6485 35.8499 17.4116 36.0326 17.0382 36.0326H15.3997C15.0262 36.0326 14.7891 35.8506 14.6996 35.6936C14.632 35.5753 14.632 35.461 14.7002 35.3413L15.6132 33.7365C15.7238 33.542 15.7291 33.3042 15.6261 33.105C15.5232 32.9059 15.3255 32.7739 15.1042 32.7542C7.24314 32.0695 1.18089 25.1089 1.30399 16.9084C1.43279 8.27583 8.25939 1.31455 16.5548 1.31455C16.6063 1.31455 16.659 1.31455 16.7103 1.31519C21.4888 1.36503 25.9438 3.76172 28.7453 7.74693C23.1543 10.4345 19.2211 16.2645 19.1197 23.0511C19.0716 26.2711 19.9071 29.3136 21.3966 31.9219C20.0951 32.393 18.7413 32.687 17.3604 32.7784ZM36.4772 38.9396C36.2533 38.9541 36.0529 39.0848 35.9467 39.2846C35.84 39.4851 35.844 39.7255 35.9558 39.9227L36.8544 41.5025C36.922 41.622 36.922 41.7365 36.855 41.8548C36.7652 42.0112 36.5284 42.1938 36.155 42.1938H34.5158C34.1423 42.1938 33.9053 42.0118 33.8157 41.8548C33.7481 41.7365 33.7481 41.6223 33.8163 41.5025L34.7287 39.8977C34.8392 39.7032 34.8439 39.4647 34.741 39.2662C34.6382 39.0671 34.4416 38.9351 34.2203 38.916C26.3592 38.2301 20.297 31.2708 20.4206 23.0697C20.5494 14.4371 27.376 7.47586 35.6714 7.47586C35.7229 7.47586 35.7757 7.47586 35.8269 7.4765C39.7983 7.518 43.5291 9.14032 46.3327 12.0435C49.2494 15.0657 50.821 19.0924 50.7572 23.3819C50.6344 31.5873 44.3615 38.4204 36.4772 38.9396Z" fill="#C7675E"/>
<path d="M60.9202 20.7432C60.9202 20.4489 60.9979 20.2528 61.1533 20.1547C61.3282 20.037 61.5515 19.9684 61.8235 19.9487H63.4843C63.5426 18.2618 63.7854 16.9574 64.2127 16.0355C64.64 15.094 65.2131 14.329 65.9318 13.7405C66.4562 13.309 67.107 12.9755 67.8839 12.7401C68.6803 12.4851 69.4573 12.3576 70.2149 12.3576C70.8753 12.3576 71.4775 12.4459 72.0214 12.6224C72.5652 12.799 72.9926 13.0245 73.3034 13.2992C73.6336 13.5738 73.7987 13.8484 73.7987 14.123C73.7987 14.4369 73.6919 14.6918 73.4782 14.888C73.284 15.0645 73.0023 15.1528 72.6332 15.1528C72.3807 15.1528 72.1476 15.0743 71.934 14.9174C71.7397 14.7605 71.5358 14.5545 71.3221 14.2995C71.1667 14.1034 70.9044 13.9269 70.5354 13.7699C70.1857 13.613 69.8361 13.5345 69.4865 13.5345C68.7095 13.5345 68.0102 13.8484 67.3886 14.4761C66.7865 15.1038 66.4854 16.1826 66.4854 17.7126V19.9487H72.9246C73.5656 19.9487 74.0318 20.1155 74.3232 20.4489C74.634 20.7628 74.7894 21.2532 74.7894 21.9201V32.7183C74.7894 33.5421 74.6534 34.0816 74.3814 34.3366C74.1095 34.5916 73.6239 34.7191 72.9246 34.7191C72.4778 34.7191 72.167 34.6112 71.9922 34.3954C71.8368 34.16 71.7591 33.8069 71.7591 33.3362V21.361H66.4854V32.7183C66.4854 33.5421 66.3494 34.0816 66.0775 34.3366C65.8055 34.5916 65.3199 34.7191 64.6206 34.7191C64.1739 34.7191 63.8631 34.6112 63.6882 34.3954C63.5328 34.16 63.4551 33.8069 63.4551 33.3362V21.361H61.8526C61.5224 21.361 61.2796 21.312 61.1242 21.2139C60.9882 21.1159 60.9202 20.9589 60.9202 20.7432Z" fill="#C7675E"/>
<path d="M87.8998 31.0118C88.094 30.796 88.3368 30.6881 88.6282 30.6881C88.803 30.6881 88.9584 30.747 89.0944 30.8647C89.2304 30.9823 89.2983 31.1295 89.2983 31.306C89.2983 31.6591 89.1721 31.9925 88.9196 32.3064C87.6375 33.9148 85.8505 34.7191 83.5584 34.7191C81.2857 34.7191 79.5667 34.1012 78.4012 32.8654C77.2551 31.61 76.6821 29.8839 76.6821 27.687C76.6821 25.1762 77.2648 23.2637 78.4303 21.9495C79.5958 20.6157 81.2857 19.9487 83.5001 19.9487C85.2677 19.9487 86.6857 20.4587 87.7541 21.4787C88.8224 22.4987 89.3566 23.9601 89.3566 25.8628C89.3566 26.8239 88.803 27.3045 87.6958 27.3045H79.858C79.8386 27.4614 79.8289 27.6772 79.8289 27.9518C79.8289 29.6387 80.1591 30.9725 80.8195 31.9533C81.48 32.9341 82.4998 33.4244 83.8789 33.4244C84.8113 33.4244 85.5494 33.2283 86.0933 32.836C86.6372 32.4437 87.0548 32.071 87.3462 31.7179C87.6375 31.3452 87.8221 31.1098 87.8998 31.0118ZM83.3253 21.1257C82.3929 21.1257 81.6256 21.5278 81.0235 22.332C80.4213 23.1362 80.062 24.3818 79.9454 26.0687H85.394C85.7436 26.0687 85.9962 26.0099 86.1516 25.8922C86.307 25.7549 86.3847 25.5293 86.3847 25.2155C86.3847 23.9012 86.0739 22.891 85.4523 22.1849C84.8501 21.4787 84.1411 21.1257 83.3253 21.1257Z" fill="#C7675E"/>
<path d="M98.6626 31.1295C98.6626 30.5802 98.4975 30.1291 98.1673 29.776C97.8565 29.4033 97.4486 29.1091 96.9436 28.8933C96.4579 28.6579 95.7587 28.3833 94.8457 28.0695C93.7385 27.6968 92.8644 27.3535 92.2234 27.0397C91.6018 26.7258 91.0968 26.3237 90.7083 25.8333C90.3198 25.3233 90.1255 24.6662 90.1255 23.862C90.1255 22.842 90.4266 22.0476 91.0288 21.4787C91.6504 20.8903 92.3691 20.4882 93.1849 20.2724C94.0007 20.0566 94.7777 19.9487 95.5159 19.9487C97.1281 19.9487 98.3907 20.1939 99.3036 20.6843C99.7504 20.9197 100.119 21.2041 100.411 21.5376C100.702 21.871 100.848 22.2437 100.848 22.6557C100.848 22.9695 100.731 23.2245 100.498 23.4207C100.285 23.6168 100.022 23.7149 99.7116 23.7149C99.3036 23.7149 98.9734 23.6266 98.7209 23.4501C98.4878 23.2735 98.2936 23.0087 98.1382 22.6557C97.9245 22.1849 97.6137 21.8122 97.2058 21.5376C96.7979 21.263 96.2443 21.1257 95.545 21.1257C94.8263 21.1257 94.2241 21.312 93.7385 21.6847C93.2723 22.0378 93.0392 22.5772 93.0392 23.303C93.0392 23.7933 93.1849 24.2151 93.4763 24.5681C93.7676 24.9016 94.1464 25.1762 94.6126 25.392C95.0788 25.6078 95.7295 25.8628 96.5648 26.157C97.6525 26.5493 98.5267 26.9024 99.1871 27.2162C99.867 27.5301 100.44 27.942 100.906 28.452C101.392 28.962 101.635 29.5897 101.635 30.335C101.635 31.6493 101.071 32.7085 99.9446 33.5127C98.8374 34.3169 97.3903 34.7191 95.6033 34.7191C94.768 34.7191 93.9716 34.6308 93.2141 34.4543C92.4759 34.2777 91.8543 34.0521 91.3493 33.7775C90.3975 33.2871 89.9216 32.6398 89.9216 31.8356C89.9216 31.5218 90.0381 31.2668 90.2712 31.0706C90.5238 30.8548 90.786 30.747 91.0579 30.747C91.8155 30.747 92.3497 31.1 92.6604 31.8062C92.913 32.3162 93.2529 32.7379 93.6802 33.0714C94.127 33.3852 94.7874 33.5421 95.6615 33.5421C96.5162 33.5421 97.2252 33.346 97.7885 32.9537C98.3713 32.5418 98.6626 31.9337 98.6626 31.1295Z" fill="#C7675E"/>
<path d="M108.457 34.7191C106.806 34.7191 105.65 34.3169 104.989 33.5127C104.348 32.6889 104.028 31.5414 104.028 30.0702V21.3905H102.28C102.047 21.3905 101.862 21.3316 101.726 21.2139C101.59 21.0962 101.522 20.9295 101.522 20.7137C101.522 20.5568 101.571 20.4391 101.668 20.3607C101.784 20.2626 101.988 20.1547 102.28 20.037C102.668 19.8605 102.998 19.6839 103.27 19.5074C103.542 19.3309 103.834 19.0759 104.144 18.7424C104.552 18.3109 104.931 17.7616 105.281 17.0947C105.475 16.7613 105.63 16.5357 105.747 16.418C105.883 16.3003 106.058 16.2415 106.271 16.2415C106.602 16.2415 106.815 16.3591 106.912 16.5945C107.01 16.8299 107.058 17.2516 107.058 17.8597V19.9487H110.584C110.797 19.9487 110.962 20.0272 111.079 20.1841C111.215 20.3214 111.283 20.4882 111.283 20.6843C111.283 20.8805 111.215 21.0472 111.079 21.1845C110.962 21.3218 110.797 21.3905 110.584 21.3905H107.058V30.747C107.058 31.6689 107.223 32.3456 107.553 32.7771C107.903 33.2087 108.321 33.4244 108.806 33.4244C109.389 33.4244 109.836 33.2773 110.147 32.9831C110.457 32.6889 110.758 32.277 111.05 31.7473C111.244 31.3747 111.419 31.1 111.574 30.9235C111.749 30.747 111.963 30.6587 112.215 30.6587C112.448 30.6587 112.633 30.7273 112.769 30.8647C112.905 30.9823 112.973 31.1491 112.973 31.3648C112.973 31.5218 112.924 31.7179 112.827 31.9533C112.73 32.1691 112.633 32.3456 112.536 32.4829C112.05 33.2283 111.448 33.7873 110.729 34.16C110.011 34.5327 109.253 34.7191 108.457 34.7191Z" fill="#C7675E"/>
<path d="M121.999 31.9239C121.358 32.885 120.62 33.5912 119.785 34.0423C118.969 34.4935 117.997 34.7191 116.871 34.7191C115.433 34.7191 114.336 34.366 113.578 33.6598C112.84 32.9341 112.471 31.9631 112.471 30.747C112.471 29.2562 113.015 28.0302 114.103 27.0691C115.21 26.0883 117.114 25.5979 119.814 25.5979H121.941V24.7741C121.941 23.4403 121.708 22.4987 121.241 21.9495C120.795 21.4003 120.056 21.1257 119.027 21.1257C118.056 21.1257 117.201 21.5376 116.463 22.3614C115.841 23.048 115.249 23.3912 114.686 23.3912C114.355 23.3912 114.103 23.303 113.928 23.1264C113.753 22.9303 113.666 22.6851 113.666 22.3908C113.666 22.0182 113.802 21.7043 114.074 21.4493C114.346 21.1943 114.744 20.9589 115.268 20.7432C115.89 20.4882 116.589 20.292 117.366 20.1547C118.163 20.0174 118.91 19.9487 119.61 19.9487C121.008 19.9487 122.096 20.1449 122.873 20.5372C123.669 20.9295 124.223 21.5082 124.534 22.2732C124.845 23.0382 125 24.0385 125 25.2743V33.3362C125 33.8069 124.922 34.16 124.767 34.3954C124.612 34.6112 124.31 34.7191 123.864 34.7191C123.223 34.7191 122.766 34.5033 122.494 34.0718C122.222 33.6206 122.086 32.9145 122.086 31.9533L121.999 31.9239ZM120.28 26.8337C117.094 26.8337 115.501 28.0008 115.501 30.335C115.501 31.9435 116.346 32.7477 118.036 32.7477C118.561 32.7477 119.124 32.6202 119.726 32.3652C120.348 32.0906 120.872 31.6983 121.3 31.1883C121.746 30.6587 121.97 30.031 121.97 29.3052V26.8337H120.28Z" fill="#C7675E"/>
<path d="M71.9922 39.4561C71.9922 40.2211 71.6134 40.6036 70.8559 40.6036H69.8944C68.4375 40.6036 67.3498 40.9665 66.6311 41.6923C65.9318 42.4181 65.5821 43.2811 65.5821 44.2815V50.8722C65.5821 51.7157 65.4364 52.2747 65.1451 52.5494C64.8731 52.824 64.3972 52.9613 63.7174 52.9613C63.2706 52.9613 62.9598 52.8534 62.785 52.6376C62.6296 52.4022 62.5519 52.0492 62.5519 51.5784V39.4561C62.5519 38.9854 62.649 38.6617 62.8433 38.4852C63.0375 38.289 63.358 38.191 63.8048 38.191C64.3487 38.191 64.7663 38.4067 65.0577 38.8383C65.3685 39.2502 65.5239 39.8779 65.5239 40.7213V41.4569H65.5821C66.1454 40.5546 66.7865 39.7896 67.5052 39.1619C68.2239 38.5146 69.1465 38.191 70.2732 38.191H70.6228C71.1084 38.191 71.4483 38.2988 71.6426 38.5146C71.8563 38.7304 71.9728 39.0442 71.9922 39.4561Z" fill="#C7675E"/>
<path d="M77.5214 52.9613C75.4041 52.9613 73.7627 52.3434 72.5973 51.1076C71.4318 49.8719 70.8491 48.028 70.8491 45.5761C70.8491 43.085 71.4415 41.2313 72.6264 40.0152C73.8113 38.799 75.443 38.191 77.5214 38.191C79.5998 38.191 81.2315 38.799 82.4164 40.0152C83.6013 41.2313 84.1937 43.085 84.1937 45.5761C84.1937 48.028 83.611 49.8719 82.4455 51.1076C81.28 52.3434 79.6387 52.9613 77.5214 52.9613ZM77.5214 51.7844C78.6674 51.7844 79.5415 51.343 80.1437 50.4603C80.7458 49.558 81.0469 47.93 81.0469 45.5761C81.0469 43.2615 80.7361 41.6531 80.1146 40.7508C79.493 39.8288 78.6286 39.3679 77.5214 39.3679C76.4336 39.3679 75.5692 39.8288 74.9282 40.7508C74.3066 41.6727 73.9958 43.2811 73.9958 45.5761C73.9958 47.9103 74.2969 49.5286 74.8991 50.4309C75.5012 51.3332 76.3753 51.7844 77.5214 51.7844Z" fill="#C7675E"/>
<path d="M95.5391 38.191C95.8887 38.191 96.1607 38.2792 96.3549 38.4558C96.5491 38.6323 96.7045 38.8971 96.8211 39.2502C96.9571 39.5836 97.1319 40.1525 97.3456 40.9567L99.7056 50.0778H99.8513L101.192 46.1057C101.483 45.2034 101.891 43.6931 102.415 41.5746L102.794 40.074C102.969 39.4856 103.173 39.0246 103.406 38.6912C103.639 38.3577 103.989 38.191 104.455 38.191C104.727 38.191 104.95 38.2498 105.125 38.3675C105.3 38.4656 105.387 38.6323 105.387 38.8677C105.387 39.1815 105.339 39.4463 105.242 39.6621L100.871 52.2257C100.793 52.4807 100.599 52.667 100.288 52.7847C99.9776 52.9024 99.6085 52.9613 99.1812 52.9613C98.8121 52.9613 98.4819 52.9024 98.1905 52.7847C97.9186 52.667 97.734 52.4807 97.6369 52.2257L95.1312 43.0457H94.9563L91.8678 52.2257C91.7901 52.4807 91.5959 52.667 91.2851 52.7847C90.9743 52.9024 90.6052 52.9613 90.1779 52.9613C89.8088 52.9613 89.4786 52.9024 89.1873 52.7847C88.9153 52.667 88.7308 52.4807 88.6337 52.2257L84.9041 39.6621C84.807 39.4463 84.7585 39.2208 84.7585 38.9854C84.7585 38.4558 85.1178 38.191 85.8365 38.191C86.361 38.191 86.8466 38.3577 87.2934 38.6912C87.7596 39.005 88.0703 39.4954 88.2257 40.1623L90.7024 50.0778H90.848L92.1883 46.0763C92.4214 45.3898 92.6545 44.5954 92.8876 43.693C93.1401 42.7907 93.315 42.1729 93.4121 41.8394L93.8783 40.1035C94.1114 39.3188 94.3348 38.8088 94.5484 38.5735C94.7621 38.3185 95.0923 38.191 95.5391 38.191Z" fill="#C7675E"/>
</svg>
