<svg width="199" height="37" viewBox="0 0 199 37" fill="none" xmlns="http://www.w3.org/2000/svg">
<path d="M196.219 17.4892H198.6C197.117 17.2197 195.607 17.2197 194.123 17.4892C193.307 17.1062 192.432 16.9193 191.552 16.9398H189.551L188.98 16.3904H188.504L187.075 15.841H187.742H189.361C189.837 15.841 190.409 15.841 190.313 15.0718C191.075 15.0718 191.933 15.0718 192.123 14.4125V13.863C192.695 13.863 193.266 13.863 193.647 13.863C194.085 13.4343 194.564 13.0655 195.076 12.7642L196.505 12.1049C196.505 11.5921 196.886 11.1526 197.648 10.7863C197.648 10.7863 198.6 10.7863 198.886 10.7863C199.172 10.7863 198.886 10.7863 198.41 10.7863H196.505V10.2369C196.505 10.2369 197.267 10.2369 197.743 10.2369C197.461 10.1577 197.167 10.1577 196.886 10.2369C196.546 9.9317 196.158 9.70757 195.743 9.57757C195.743 9.57757 194.695 9.57757 195.076 8.69849C195.457 7.81942 195.743 8.69849 196.505 8.69849C196.363 8.50489 196.188 8.3466 195.992 8.23325C195.795 8.11991 195.581 8.05387 195.362 8.03917C195.212 7.96016 195.05 7.91927 194.885 7.91927C194.721 7.91927 194.559 7.96016 194.409 8.03917H192.885H191.837H192.79C193.318 7.93921 193.831 7.75427 194.314 7.48976C195.07 7.64382 195.844 7.64382 196.6 7.48976H194.219C194.219 7.48976 195.362 7.48976 195.457 7.48976C194.443 7.37721 193.423 7.37721 192.409 7.48976H189.075H186.884C186.884 7.48976 185.074 7.48976 185.741 6.72058C183.922 6.0756 182.024 5.77865 180.121 5.8415H178.788C177.015 5.61996 175.227 5.61996 173.454 5.8415C172.599 5.72799 171.736 5.72799 170.882 5.8415C170.417 5.67279 169.918 5.67279 169.453 5.8415C168.73 5.67279 167.985 5.67279 167.262 5.8415H166.596C164.976 5.8415 163.262 5.8415 161.738 5.8415C161.011 5.73094 160.274 5.73094 159.547 5.8415H143.449H142.878C142.343 5.72796 141.794 5.72796 141.259 5.8415C136.972 5.8415 132.591 5.8415 128.304 5.8415H127.161C125.512 5.73161 123.858 5.73161 122.208 5.8415C121.481 5.73094 120.745 5.73094 120.017 5.8415C116.112 5.8415 112.112 5.8415 108.206 5.8415H104.015H105.158C104.628 5.67836 104.069 5.67836 103.539 5.8415H100.967C100.967 5.8415 100.11 5.8415 99.824 5.8415C98.1443 5.67579 96.4554 5.67579 94.7757 5.8415H72.8677H66.6763H50.4835C49.2154 5.72907 47.9416 5.72907 46.6734 5.8415H43.8159C42.9326 5.6773 42.0322 5.6773 41.1488 5.8415H40.1011C38.3865 5.8415 36.672 5.8415 34.8622 5.8415C33.785 5.72556 32.7008 5.72556 31.6236 5.8415C31.0521 5.8415 30.5759 5.8415 30.4806 5.8415C30.3854 5.8415 29.9091 6.94034 29.0518 7.37987C28.1946 7.81941 28.2898 8.36882 29.0518 8.80836L30.1949 9.68743C29.238 9.72173 28.2976 9.98361 27.4326 10.4566C27.4326 10.4566 26.861 10.4566 26.7658 10.4566C26.6619 10.3983 26.5479 10.368 26.4324 10.368C26.3169 10.368 26.2029 10.3983 26.099 10.4566C25.5275 10.4566 24.575 10.4566 24.2892 10.4566H22.3842C21.7543 10.3248 21.109 10.3248 20.4792 10.4566C21.0702 10.655 21.6979 10.655 22.2889 10.4566H22.9557V11.995H20.0982C18.5731 12.081 17.066 12.4139 15.6213 12.984C14.5735 12.984 13.9068 13.6433 12.859 13.863C13.621 13.863 14.002 13.863 14.5735 13.863L13.8115 14.4125C12.9859 14.497 12.1957 14.8388 11.5255 15.4014C11.5255 15.4014 10.7635 15.4014 10.8587 15.9508C10.954 16.5003 9.33469 16.9398 9.23944 17.709H10.4777L9.52519 13.7532C9.52519 13.7532 9.52519 14.4125 9.52519 14.7421H8.47742H7.62015C6.00087 15.2915 6.00087 15.4014 7.62015 15.9508C6.30042 15.9924 4.98956 16.2137 3.71482 16.6101C3.71482 16.6101 2.47655 17.1596 1.80979 17.3793L0.571512 17.9287H2.76231H0C1.51502 18.1991 3.05707 18.1991 4.57209 17.9287C5.3588 18.4165 6.25794 18.6086 7.14389 18.4782C7.77554 18.5849 8.41729 18.5849 9.04893 18.4782C9.27815 18.5999 9.47534 18.7894 9.62044 19.0276H10.192L11.6207 19.577H10.8587C10.3234 19.4635 9.77471 19.4635 9.23944 19.577H9.52519C9.52519 19.577 8.57267 19.577 8.57267 20.3462C7.81066 20.3462 6.95339 20.3462 6.76289 20.8956C6.19137 20.8956 5.61986 20.8956 5.23886 20.8956L3.90533 21.9945H2.3813C2.3813 22.5439 2.3813 22.9834 1.33353 23.3131C0.285756 23.6427 0.285756 23.3131 0.0952519 23.3131H1.90504V23.8625C1.90504 23.8625 1.14302 23.8625 0.666763 23.8625C0.950166 23.9223 1.24063 23.9223 1.52403 23.8625C1.86969 24.1313 2.25824 24.318 2.66705 24.4119C2.66705 24.4119 3.71483 24.9613 3.42907 25.4009C3.14331 25.8404 2.76231 25.4009 2.00029 25.4009C2.27387 25.735 2.64998 25.9322 3.04806 25.9503C3.19897 26.0228 3.36084 26.0602 3.52432 26.0602C3.68781 26.0602 3.84967 26.0228 4.00058 25.9503H5.33411H6.47713H5.61986C4.7626 25.9503 5.61986 25.9503 5.61986 26.6096C5.07514 26.6089 4.54329 26.8006 4.09583 27.159C3.33627 27.0592 2.56934 27.0592 1.80979 27.159H3.90533C3.90533 27.159 2.76231 27.159 2.66705 27.159C3.6462 27.3228 4.64071 27.3228 5.61986 27.159H9.52519H11.8112C11.8112 27.159 13.621 27.159 12.9543 27.9282C14.1484 31.5452 16.2763 34.652 19.0504 36.8288H20.4792C22.22 37.0538 23.9772 37.0538 25.718 36.8288C26.5691 36.9969 27.4387 36.9969 28.2898 36.8288C28.8613 36.8288 29.4328 36.8288 29.8139 36.8288C30.563 37.0571 31.3507 37.0571 32.0999 36.8288H32.7667C34.2907 36.8288 36.0052 36.8288 37.6245 36.8288C38.3516 36.9394 39.0882 36.9394 39.8153 36.8288H55.2461H66.6763H57.1512C61.5327 36.8288 65.8191 36.8288 70.2007 36.8288H71.4389C73.1187 36.9935 74.8075 36.9935 76.4873 36.8288H79.0591C82.9644 36.8288 86.8698 36.8288 90.7751 36.8288H94.2994C94.5513 36.8826 94.8095 36.8826 95.0614 36.8288H93.9184C94.4217 36.9415 94.9391 36.9415 95.4424 36.8288H97.6332C98.0069 36.951 98.4026 36.951 98.7762 36.8288C100.521 36.9397 102.27 36.9397 104.015 36.8288H125.733H132.019H158.594C160.306 36.9955 162.027 36.9955 163.738 36.8288C164.816 36.9382 165.899 36.9382 166.977 36.8288C167.548 36.8288 168.024 36.8288 168.215 36.8288C168.405 36.8288 168.786 35.73 169.548 35.2904C170.31 34.8509 170.31 34.4114 169.548 33.862L168.501 32.873C169.438 32.9456 170.371 32.6766 171.168 32.1038H171.834H172.501C173.168 32.1038 174.025 32.1038 174.311 32.1038H176.121H178.121C177.493 31.9495 176.844 31.9495 176.216 32.1038H175.549V30.6753H177.169H178.597C180.124 30.6 181.632 30.2668 183.074 29.6864C184.008 29.4947 184.93 29.2378 185.837 28.9172C185.17 28.9172 184.693 28.9172 184.217 28.9172H183.741H184.598C185.372 28.7334 186.113 28.399 186.789 27.9282C187.265 27.9282 187.551 27.9282 187.456 27.2689C187.361 26.6096 188.98 26.2799 189.075 25.5108H187.932L188.694 24.9613C188.694 24.9613 188.694 24.302 188.694 23.9724H189.837C190.082 24.0827 190.354 24.0827 190.599 23.9724C192.218 23.423 192.218 23.423 190.599 22.7637C191.919 22.7221 193.23 22.5008 194.504 22.1044C194.504 22.1044 195.743 21.5549 196.409 21.3352L197.743 20.7857H195.933C195.933 20.7857 195.647 17.4892 196.219 17.4892ZM58.2942 2.76474C58.2942 2.76474 58.4847 2.10544 58.2942 2.10544V2.76474ZM140.306 34.5213C140.306 34.5213 140.116 34.6311 140.306 34.6311V34.5213ZM126.685 36.2794C126.685 36.2794 127.161 35.73 127.066 36.2794H126.685ZM95.4424 0.347295C95.4424 0.347295 95.2519 -0.0922487 95.2519 0.0176355L95.4424 0.347295ZM127.923 36.8288H128.685C128.44 36.7185 128.168 36.7185 127.923 36.8288Z" fill="#FFEB34"/>
<path d="M32.256 25H30.852V16.996H34.368C36.048 16.996 36.984 18.148 36.984 19.504C36.984 20.86 36.036 22.012 34.368 22.012H32.256V25ZM34.176 20.776C34.968 20.776 35.544 20.272 35.544 19.504C35.544 18.736 34.968 18.232 34.176 18.232H32.256V20.776H34.176ZM42.6824 25H41.4224V24.376C40.9904 24.868 40.3184 25.144 39.5504 25.144C38.6024 25.144 37.5344 24.508 37.5344 23.224C37.5344 21.892 38.6024 21.34 39.5504 21.34C40.3304 21.34 41.0024 21.592 41.4224 22.084V21.22C41.4224 20.548 40.8704 20.14 40.0664 20.14C39.4184 20.14 38.8544 20.38 38.3504 20.872L37.8344 19.996C38.5064 19.36 39.3464 19.06 40.2704 19.06C41.5544 19.06 42.6824 19.6 42.6824 21.16V25ZM40.0424 24.28C40.5944 24.28 41.1344 24.076 41.4224 23.68V22.804C41.1344 22.408 40.5944 22.204 40.0424 22.204C39.3344 22.204 38.8064 22.612 38.8064 23.248C38.8064 23.872 39.3344 24.28 40.0424 24.28ZM45.576 25H44.316V19.204H45.576V20.056C46.008 19.504 46.704 19.072 47.46 19.072V20.32C47.352 20.296 47.22 20.284 47.064 20.284C46.536 20.284 45.828 20.644 45.576 21.052V25ZM50.2162 25.144C49.2442 25.144 48.7282 24.616 48.7282 23.656V20.308H47.7682V19.204H48.7282V17.62H49.9882V19.204H51.1642V20.308H49.9882V23.344C49.9882 23.74 50.1802 24.028 50.5402 24.028C50.7802 24.028 51.0082 23.932 51.1042 23.824L51.4042 24.772C51.1762 24.988 50.8042 25.144 50.2162 25.144ZM52.0562 27.268L52.2482 26.14C52.3802 26.2 52.5842 26.236 52.7282 26.236C53.1242 26.236 53.3882 26.116 53.5562 25.732L53.8442 25.072L51.4682 19.204H52.8122L54.5042 23.548L56.1962 19.204H57.5522L54.7562 26.044C54.3602 27.028 53.6642 27.34 52.7642 27.352C52.5842 27.352 52.2362 27.316 52.0562 27.268ZM64.5454 25.144C63.8134 25.144 63.1534 24.82 62.6854 24.196V27.208H61.4254V19.204H62.6854V19.996C63.1174 19.42 63.7894 19.06 64.5454 19.06C66.0454 19.06 67.1134 20.188 67.1134 22.096C67.1134 24.004 66.0454 25.144 64.5454 25.144ZM64.1734 24.028C65.1694 24.028 65.8054 23.224 65.8054 22.096C65.8054 20.98 65.1694 20.176 64.1734 20.176C63.5854 20.176 62.9614 20.524 62.6854 20.956V23.248C62.9614 23.668 63.5854 24.028 64.1734 24.028ZM69.6229 25H68.3629V19.204H69.6229V20.056C70.0549 19.504 70.7509 19.072 71.5069 19.072V20.32C71.3989 20.296 71.2669 20.284 71.1109 20.284C70.5829 20.284 69.8749 20.644 69.6229 21.052V25ZM75.139 25.144C73.303 25.144 72.163 23.764 72.163 22.096C72.163 20.44 73.303 19.06 75.139 19.06C76.999 19.06 78.127 20.44 78.127 22.096C78.127 23.764 76.999 25.144 75.139 25.144ZM75.139 24.028C76.219 24.028 76.819 23.128 76.819 22.096C76.819 21.076 76.219 20.176 75.139 20.176C74.071 20.176 73.471 21.076 73.471 22.096C73.471 23.128 74.071 24.028 75.139 24.028ZM82.5219 25.144C81.7899 25.144 81.1299 24.82 80.6619 24.196V27.208H79.4019V19.204H80.6619V19.996C81.0939 19.42 81.7659 19.06 82.5219 19.06C84.0219 19.06 85.0899 20.188 85.0899 22.096C85.0899 24.004 84.0219 25.144 82.5219 25.144ZM82.1499 24.028C83.1459 24.028 83.7819 23.224 83.7819 22.096C83.7819 20.98 83.1459 20.176 82.1499 20.176C81.5619 20.176 80.9379 20.524 80.6619 20.956V23.248C80.9379 23.668 81.5619 24.028 82.1499 24.028ZM88.3194 25.144C87.3354 25.144 86.4354 24.832 85.8354 24.244L86.4114 23.332C86.8194 23.752 87.6234 24.148 88.3794 24.148C89.1354 24.148 89.5194 23.824 89.5194 23.368C89.5194 22.228 86.0154 23.044 86.0154 20.824C86.0154 19.876 86.8314 19.06 88.2954 19.06C89.2794 19.06 90.0234 19.408 90.5514 19.876L90.0234 20.764C89.6754 20.368 89.0274 20.068 88.3074 20.068C87.6474 20.068 87.2274 20.368 87.2274 20.776C87.2274 21.808 90.7314 21.04 90.7314 23.344C90.7314 24.364 89.8794 25.144 88.3194 25.144ZM96.6416 25H95.3816V20.308H94.4216V19.204H95.3816V18.88C95.3816 17.62 96.1136 16.876 97.2176 16.876C97.7336 16.876 98.2496 17.008 98.6096 17.38L98.1176 18.16C97.9496 18.004 97.7336 17.908 97.4456 17.908C96.9536 17.908 96.6416 18.232 96.6416 18.88V19.204H97.8176V20.308H96.6416V25ZM101.389 25.144C99.553 25.144 98.413 23.764 98.413 22.096C98.413 20.44 99.553 19.06 101.389 19.06C103.249 19.06 104.377 20.44 104.377 22.096C104.377 23.764 103.249 25.144 101.389 25.144ZM101.389 24.028C102.469 24.028 103.069 23.128 103.069 22.096C103.069 21.076 102.469 20.176 101.389 20.176C100.321 20.176 99.721 21.076 99.721 22.096C99.721 23.128 100.321 24.028 101.389 24.028ZM106.912 25H105.652V19.204H106.912V20.056C107.344 19.504 108.04 19.072 108.796 19.072V20.32C108.688 20.296 108.556 20.284 108.4 20.284C107.872 20.284 107.164 20.644 106.912 21.052V25ZM112.642 27.268L112.834 26.14C112.966 26.2 113.17 26.236 113.314 26.236C113.71 26.236 113.974 26.116 114.142 25.732L114.43 25.072L112.054 19.204H113.398L115.09 23.548L116.782 19.204H118.138L115.342 26.044C114.946 27.028 114.25 27.34 113.35 27.352C113.17 27.352 112.822 27.316 112.642 27.268ZM121.545 25.144C119.709 25.144 118.569 23.764 118.569 22.096C118.569 20.44 119.709 19.06 121.545 19.06C123.405 19.06 124.533 20.44 124.533 22.096C124.533 23.764 123.405 25.144 121.545 25.144ZM121.545 24.028C122.625 24.028 123.225 23.128 123.225 22.096C123.225 21.076 122.625 20.176 121.545 20.176C120.477 20.176 119.877 21.076 119.877 22.096C119.877 23.128 120.477 24.028 121.545 24.028ZM130.98 25H129.72V24.232C129.3 24.7 128.58 25.144 127.668 25.144C126.42 25.144 125.808 24.496 125.808 23.308V19.204H127.068V22.852C127.068 23.752 127.524 24.028 128.232 24.028C128.868 24.028 129.42 23.668 129.72 23.272V19.204H130.98V25ZM133.877 25H132.617V19.204H133.877V20.056C134.309 19.504 135.005 19.072 135.761 19.072V20.32C135.653 20.296 135.521 20.284 135.365 20.284C134.837 20.284 134.129 20.644 133.877 21.052V25ZM142.535 25.144C140.795 25.144 139.499 23.932 139.499 22.096C139.499 20.416 140.723 19.06 142.439 19.06C144.179 19.06 145.295 20.392 145.295 22.216V22.516H140.819C140.915 23.392 141.575 24.112 142.667 24.112C143.231 24.112 143.903 23.884 144.311 23.476L144.887 24.304C144.311 24.856 143.459 25.144 142.535 25.144ZM144.071 21.628C144.047 20.944 143.579 20.092 142.439 20.092C141.359 20.092 140.867 20.92 140.807 21.628H144.071ZM149.419 25H148.063L145.699 19.204H147.043L148.735 23.548L150.427 19.204H151.783L149.419 25ZM155.25 25.144C153.51 25.144 152.214 23.932 152.214 22.096C152.214 20.416 153.438 19.06 155.154 19.06C156.894 19.06 158.01 20.392 158.01 22.216V22.516H153.534C153.63 23.392 154.29 24.112 155.382 24.112C155.946 24.112 156.618 23.884 157.026 23.476L157.602 24.304C157.026 24.856 156.174 25.144 155.25 25.144ZM156.786 21.628C156.762 20.944 156.294 20.092 155.154 20.092C154.074 20.092 153.582 20.92 153.522 21.628H156.786ZM164.426 25H163.166V21.376C163.166 20.476 162.71 20.176 162.002 20.176C161.354 20.176 160.802 20.56 160.514 20.956V25H159.254V19.204H160.514V19.996C160.898 19.54 161.642 19.06 162.554 19.06C163.802 19.06 164.426 19.732 164.426 20.92V25ZM167.802 25.144C166.83 25.144 166.314 24.616 166.314 23.656V20.308H165.354V19.204H166.314V17.62H167.574V19.204H168.75V20.308H167.574V23.344C167.574 23.74 167.766 24.028 168.126 24.028C168.366 24.028 168.594 23.932 168.69 23.824L168.99 24.772C168.762 24.988 168.39 25.144 167.802 25.144Z" fill="#637381"/>
</svg>
